<?xml version="1.0" encoding="UTF-8" standalone="no"?>
<!DOCTYPE svg PUBLIC "-//W3C//DTD SVG 1.1//EN"
 "http://www.w3.org/Graphics/SVG/1.1/DTD/svg11.dtd">
<!-- Generated by graphviz version 2.40.1 (20161225.0304)
 -->
<!-- Title: models_diagram Pages: 1 -->
<svg width="1842pt" height="1036pt"
 viewBox="0.00 0.00 1841.91 1035.51" xmlns="http://www.w3.org/2000/svg" xmlns:xlink="http://www.w3.org/1999/xlink">
<g id="graph0" class="graph" transform="scale(1 1) rotate(0) translate(36 999.5054)">
<title>models_diagram</title>
<polygon fill="#ffffff" stroke="transparent" points="-36,36 -36,-999.5054 1805.9052,-999.5054 1805.9052,36 -36,36"/>
<!-- Cohort -->
<g id="node1" class="node">
<title>Cohort</title>
<polygon fill="#add8e6" stroke="transparent" points="821.3902,-809.7325 821.3902,-831.7325 926.3902,-831.7325 926.3902,-809.7325 821.3902,-809.7325"/>
<polygon fill="none" stroke="#000000" points="821.3902,-809.7325 821.3902,-831.7325 926.3902,-831.7325 926.3902,-809.7325 821.3902,-809.7325"/>
<text text-anchor="start" x="860.0017" y="-818.7325" font-family="Times,serif" font-weight="bold" font-size="10.00" fill="#000000">Cohort</text>
<polygon fill="none" stroke="#000000" points="821.3902,-787.7325 821.3902,-809.7325 926.3902,-809.7325 926.3902,-787.7325 821.3902,-787.7325"/>
<text text-anchor="start" x="826.3902" y="-796.7325" font-family="Times,serif" text-decoration="underline" font-size="10.00" fill="#000000">id</text>
<text text-anchor="start" x="834.1692" y="-796.7325" font-family="Times,serif" font-size="10.00" fill="#000000">: NUMBER</text>
<polygon fill="none" stroke="#000000" points="821.3902,-765.7325 821.3902,-787.7325 926.3902,-787.7325 926.3902,-765.7325 821.3902,-765.7325"/>
<text text-anchor="start" x="826.3902" y="-773.7325" font-family="Times,serif" font-size="10.00" fill="#000000">name: STRING</text>
<polygon fill="none" stroke="#000000" points="821.3902,-743.7325 821.3902,-765.7325 926.3902,-765.7325 926.3902,-743.7325 821.3902,-743.7325"/>
<text text-anchor="start" x="825.9942" y="-751.7325" font-family="Times,serif" font-size="10.00" fill="#000000">startDate: DATEONLY</text>
<polygon fill="none" stroke="#000000" points="821.3902,-721.7325 821.3902,-743.7325 926.3902,-743.7325 926.3902,-721.7325 821.3902,-721.7325"/>
<text text-anchor="start" x="826.3902" y="-729.7325" font-family="Times,serif" font-size="10.00" fill="#000000">endDate: DATEONLY</text>
<polygon fill="none" stroke="#000000" points="821.3902,-699.7325 821.3902,-721.7325 926.3902,-721.7325 926.3902,-699.7325 821.3902,-699.7325"/>
<text text-anchor="start" x="826.3902" y="-707.7325" font-family="Times,serif" font-size="10.00" fill="#000000">activated: BOOLEAN</text>
<polygon fill="none" stroke="#000000" points="821.3902,-677.7325 821.3902,-699.7325 926.3902,-699.7325 926.3902,-677.7325 821.3902,-677.7325"/>
<text text-anchor="start" x="826.3902" y="-685.7325" font-family="Times,serif" font-size="10.00" fill="#000000">createdAt: DATE</text>
<polygon fill="none" stroke="#000000" points="821.3902,-655.7325 821.3902,-677.7325 926.3902,-677.7325 926.3902,-655.7325 821.3902,-655.7325"/>
<text text-anchor="start" x="826.3902" y="-663.7325" font-family="Times,serif" font-size="10.00" fill="#000000">updatedAt: DATE</text>
</g>
<!-- CohortTrack -->
<g id="node2" class="node">
<title>CohortTrack</title>
<polygon fill="#add8e6" stroke="transparent" points="575.3902,-251.7325 575.3902,-273.7325 658.3902,-273.7325 658.3902,-251.7325 575.3902,-251.7325"/>
<polygon fill="none" stroke="#000000" points="575.3902,-251.7325 575.3902,-273.7325 658.3902,-273.7325 658.3902,-251.7325 575.3902,-251.7325"/>
<text text-anchor="start" x="591.3437" y="-260.7325" font-family="Times,serif" font-weight="bold" font-size="10.00" fill="#000000">CohortTrack</text>
<polygon fill="none" stroke="#000000" points="575.3902,-229.7325 575.3902,-251.7325 658.3902,-251.7325 658.3902,-229.7325 575.3902,-229.7325"/>
<text text-anchor="start" x="580.3902" y="-238.7325" font-family="Times,serif" text-decoration="underline" font-size="10.00" fill="#000000">id</text>
<text text-anchor="start" x="588.1692" y="-238.7325" font-family="Times,serif" font-size="10.00" fill="#000000">: NUMBER</text>
<polygon fill="none" stroke="#000000" points="575.3902,-207.7325 575.3902,-229.7325 658.3902,-229.7325 658.3902,-207.7325 575.3902,-207.7325"/>
<text text-anchor="start" x="580.3902" y="-215.7325" font-family="Times,serif" font-size="10.00" fill="#000000">name: STRING</text>
<polygon fill="none" stroke="#000000" points="575.3902,-185.7325 575.3902,-207.7325 658.3902,-207.7325 658.3902,-185.7325 575.3902,-185.7325"/>
<text text-anchor="start" x="580.3902" y="-193.7325" font-family="Times,serif" font-size="10.00" fill="#000000">createdAt: DATE</text>
<polygon fill="none" stroke="#000000" points="575.3902,-163.7325 575.3902,-185.7325 658.3902,-185.7325 658.3902,-163.7325 575.3902,-163.7325"/>
<text text-anchor="start" x="580.0952" y="-171.7325" font-family="Times,serif" font-size="10.00" fill="#000000">updatedAt: DATE</text>
</g>
<!-- Lecture -->
<g id="node3" class="node">
<title>Lecture</title>
<polygon fill="#add8e6" stroke="transparent" points="661.3902,-492.7325 661.3902,-514.7325 766.3902,-514.7325 766.3902,-492.7325 661.3902,-492.7325"/>
<polygon fill="none" stroke="#000000" points="661.3902,-492.7325 661.3902,-514.7325 766.3902,-514.7325 766.3902,-492.7325 661.3902,-492.7325"/>
<text text-anchor="start" x="698.6232" y="-501.7325" font-family="Times,serif" font-weight="bold" font-size="10.00" fill="#000000">Lecture</text>
<polygon fill="none" stroke="#000000" points="661.3902,-470.7325 661.3902,-492.7325 766.3902,-492.7325 766.3902,-470.7325 661.3902,-470.7325"/>
<text text-anchor="start" x="666.3902" y="-479.7325" font-family="Times,serif" text-decoration="underline" font-size="10.00" fill="#000000">id</text>
<text text-anchor="start" x="674.1692" y="-479.7325" font-family="Times,serif" font-size="10.00" fill="#000000">: NUMBER</text>
<polygon fill="none" stroke="#000000" points="661.3902,-448.7325 661.3902,-470.7325 766.3902,-470.7325 766.3902,-448.7325 661.3902,-448.7325"/>
<text text-anchor="start" x="666.3902" y="-456.7325" font-family="Times,serif" font-size="10.00" fill="#000000">title: STRING</text>
<polygon fill="none" stroke="#000000" points="661.3902,-426.7325 661.3902,-448.7325 766.3902,-448.7325 766.3902,-426.7325 661.3902,-426.7325"/>
<text text-anchor="start" x="665.9942" y="-434.7325" font-family="Times,serif" font-size="10.00" fill="#000000">startDate: DATEONLY</text>
<polygon fill="none" stroke="#000000" points="661.3902,-404.7325 661.3902,-426.7325 766.3902,-426.7325 766.3902,-404.7325 661.3902,-404.7325"/>
<text text-anchor="start" x="666.3902" y="-412.7325" font-family="Times,serif" font-size="10.00" fill="#000000">endDate: DATEONLY</text>
<polygon fill="none" stroke="#000000" points="661.3902,-382.7325 661.3902,-404.7325 766.3902,-404.7325 766.3902,-382.7325 661.3902,-382.7325"/>
<text text-anchor="start" x="666.3902" y="-390.7325" font-family="Times,serif" font-size="10.00" fill="#000000">createdAt: DATE</text>
<polygon fill="none" stroke="#000000" points="661.3902,-360.7325 661.3902,-382.7325 766.3902,-382.7325 766.3902,-360.7325 661.3902,-360.7325"/>
<text text-anchor="start" x="666.3902" y="-368.7325" font-family="Times,serif" font-size="10.00" fill="#000000">updatedAt: DATE</text>
<polygon fill="none" stroke="#000000" points="661.3902,-338.7325 661.3902,-360.7325 766.3902,-360.7325 766.3902,-338.7325 661.3902,-338.7325"/>
<text text-anchor="start" x="666.3902" y="-347.7325" font-family="Times,serif" font-style="italic" text-decoration="underline" font-size="10.00" fill="#000000">trackId</text>
<text text-anchor="start" x="694.7052" y="-347.7325" font-family="Times,serif" font-size="10.00" fill="#000000">: NUMBER</text>
</g>
<!-- Track -->
<g id="node10" class="node">
<title>Track</title>
<polygon fill="#add8e6" stroke="transparent" points="868.911,-481.7325 868.911,-503.7325 963.911,-503.7325 963.911,-481.7325 868.911,-481.7325"/>
<polygon fill="none" stroke="#000000" points="868.911,-481.7325 868.911,-503.7325 963.911,-503.7325 963.911,-481.7325 868.911,-481.7325"/>
<text text-anchor="start" x="904.753" y="-490.7325" font-family="Times,serif" font-weight="bold" font-size="10.00" fill="#000000">Track</text>
<polygon fill="none" stroke="#000000" points="868.911,-459.7325 868.911,-481.7325 963.911,-481.7325 963.911,-459.7325 868.911,-459.7325"/>
<text text-anchor="start" x="873.911" y="-468.7325" font-family="Times,serif" text-decoration="underline" font-size="10.00" fill="#000000">id</text>
<text text-anchor="start" x="881.69" y="-468.7325" font-family="Times,serif" font-size="10.00" fill="#000000">: NUMBER</text>
<polygon fill="none" stroke="#000000" points="868.911,-437.7325 868.911,-459.7325 963.911,-459.7325 963.911,-437.7325 868.911,-437.7325"/>
<text text-anchor="start" x="873.911" y="-445.7325" font-family="Times,serif" font-size="10.00" fill="#000000">name: STRING</text>
<polygon fill="none" stroke="#000000" points="868.911,-415.7325 868.911,-437.7325 963.911,-437.7325 963.911,-415.7325 868.911,-415.7325"/>
<text text-anchor="start" x="873.503" y="-423.7325" font-family="Times,serif" font-size="10.00" fill="#000000">description: STRING</text>
<polygon fill="none" stroke="#000000" points="868.911,-393.7325 868.911,-415.7325 963.911,-415.7325 963.911,-393.7325 868.911,-393.7325"/>
<text text-anchor="start" x="873.911" y="-401.7325" font-family="Times,serif" font-size="10.00" fill="#000000">iconImage: STRING</text>
<polygon fill="none" stroke="#000000" points="868.911,-371.7325 868.911,-393.7325 963.911,-393.7325 963.911,-371.7325 868.911,-371.7325"/>
<text text-anchor="start" x="873.911" y="-379.7325" font-family="Times,serif" font-size="10.00" fill="#000000">createdAt: DATE</text>
<polygon fill="none" stroke="#000000" points="868.911,-349.7325 868.911,-371.7325 963.911,-371.7325 963.911,-349.7325 868.911,-349.7325"/>
<text text-anchor="start" x="873.911" y="-357.7325" font-family="Times,serif" font-size="10.00" fill="#000000">updatedAt: DATE</text>
</g>
<!-- Lecture&#45;&gt;Track -->
<g id="edge3" class="edge">
<title>Lecture&#45;&gt;Track</title>
<path fill="none" stroke="#000000" stroke-width=".75" d="M772.0976,-426.7325C802.6714,-426.7325 839.5717,-426.7325 868.3389,-426.7325"/>
<polygon fill="#000000" stroke="#000000" stroke-width=".75" points="772.0715,-426.7326 766.0715,-424.0325 769.0715,-426.7325 766.0715,-426.7325 766.0715,-426.7325 766.0715,-426.7325 769.0715,-426.7325 766.0714,-429.4325 772.0715,-426.7326 772.0715,-426.7326"/>
</g>
<!-- Material -->
<g id="node4" class="node">
<title>Material</title>
<polygon fill="#add8e6" stroke="transparent" points=".5,-481.7325 .5,-503.7325 93.5,-503.7325 93.5,-481.7325 .5,-481.7325"/>
<polygon fill="none" stroke="#000000" points=".5,-481.7325 .5,-503.7325 93.5,-503.7325 93.5,-481.7325 .5,-481.7325"/>
<text text-anchor="start" x="30.064" y="-490.7325" font-family="Times,serif" font-weight="bold" font-size="10.00" fill="#000000">Material</text>
<polygon fill="none" stroke="#000000" points=".5,-459.7325 .5,-481.7325 93.5,-481.7325 93.5,-459.7325 .5,-459.7325"/>
<text text-anchor="start" x="5.5" y="-468.7325" font-family="Times,serif" text-decoration="underline" font-size="10.00" fill="#000000">id</text>
<text text-anchor="start" x="13.279" y="-468.7325" font-family="Times,serif" font-size="10.00" fill="#000000">: NUMBER</text>
<polygon fill="none" stroke="#000000" points=".5,-437.7325 .5,-459.7325 93.5,-459.7325 93.5,-437.7325 .5,-437.7325"/>
<text text-anchor="start" x="5.5" y="-445.7325" font-family="Times,serif" font-size="10.00" fill="#000000">title: STRING</text>
<polygon fill="none" stroke="#000000" points=".5,-415.7325 .5,-437.7325 93.5,-437.7325 93.5,-415.7325 .5,-415.7325"/>
<text text-anchor="start" x="5.5" y="-423.7325" font-family="Times,serif" font-size="10.00" fill="#000000">content: STRING</text>
<polygon fill="none" stroke="#000000" points=".5,-393.7325 .5,-415.7325 93.5,-415.7325 93.5,-393.7325 .5,-393.7325"/>
<text text-anchor="start" x="5.5" y="-401.7325" font-family="Times,serif" font-size="10.00" fill="#000000">createdAt: DATE</text>
<polygon fill="none" stroke="#000000" points=".5,-371.7325 .5,-393.7325 93.5,-393.7325 93.5,-371.7325 .5,-371.7325"/>
<text text-anchor="start" x="5.5" y="-379.7325" font-family="Times,serif" font-size="10.00" fill="#000000">updatedAt: DATE</text>
<polygon fill="none" stroke="#000000" points=".5,-349.7325 .5,-371.7325 93.5,-371.7325 93.5,-349.7325 .5,-349.7325"/>
<text text-anchor="start" x="5.207" y="-358.7325" font-family="Times,serif" font-style="italic" text-decoration="underline" font-size="10.00" fill="#000000">lectureId</text>
<text text-anchor="start" x="40.74" y="-358.7325" font-family="Times,serif" font-size="10.00" fill="#000000">: NUMBER</text>
</g>
<!-- Material&#45;&gt;Lecture -->
<g id="edge4" class="edge">
<title>Material&#45;&gt;Lecture</title>
<path fill="none" stroke="#000000" stroke-width=".75" d="M99.2842,-426.7325C224.0064,-426.7325 535.7919,-426.7325 660.56,-426.7325"/>
<polygon fill="#000000" stroke="#000000" stroke-width=".75" points="99.1294,-426.7326 93.1294,-424.0325 96.1294,-426.7325 93.1294,-426.7325 93.1294,-426.7325 93.1294,-426.7325 96.1294,-426.7325 93.1293,-429.4325 99.1294,-426.7326 99.1294,-426.7326"/>
</g>
<!-- Mentor -->
<g id="node5" class="node">
<title>Mentor</title>
<polygon fill="#add8e6" stroke="transparent" points="1651.9052,-657.7729 1651.9052,-679.7729 1769.9052,-679.7729 1769.9052,-657.7729 1651.9052,-657.7729"/>
<polygon fill="none" stroke="#000000" points="1651.9052,-657.7729 1651.9052,-679.7729 1769.9052,-679.7729 1769.9052,-657.7729 1651.9052,-657.7729"/>
<text text-anchor="start" x="1696.1872" y="-666.7729" font-family="Times,serif" font-weight="bold" font-size="10.00" fill="#000000">Mentor</text>
<polygon fill="none" stroke="#000000" points="1651.9052,-635.7729 1651.9052,-657.7729 1769.9052,-657.7729 1769.9052,-635.7729 1651.9052,-635.7729"/>
<text text-anchor="start" x="1656.9052" y="-644.7729" font-family="Times,serif" text-decoration="underline" font-size="10.00" fill="#000000">id</text>
<text text-anchor="start" x="1664.6842" y="-644.7729" font-family="Times,serif" font-size="10.00" fill="#000000">: NUMBER</text>
<polygon fill="none" stroke="#000000" points="1651.9052,-613.7729 1651.9052,-635.7729 1769.9052,-635.7729 1769.9052,-613.7729 1651.9052,-613.7729"/>
<text text-anchor="start" x="1656.6127" y="-621.7729" font-family="Times,serif" font-size="10.00" fill="#000000">bankInformation: STRING</text>
<polygon fill="none" stroke="#000000" points="1651.9052,-591.7729 1651.9052,-613.7729 1769.9052,-613.7729 1769.9052,-591.7729 1651.9052,-591.7729"/>
<text text-anchor="start" x="1656.9052" y="-599.7729" font-family="Times,serif" font-size="10.00" fill="#000000">cv: STRING</text>
<polygon fill="none" stroke="#000000" points="1651.9052,-569.7729 1651.9052,-591.7729 1769.9052,-591.7729 1769.9052,-569.7729 1651.9052,-569.7729"/>
<text text-anchor="start" x="1656.9052" y="-577.7729" font-family="Times,serif" font-size="10.00" fill="#000000">status: STRING</text>
<polygon fill="none" stroke="#000000" points="1651.9052,-547.7729 1651.9052,-569.7729 1769.9052,-569.7729 1769.9052,-547.7729 1651.9052,-547.7729"/>
<text text-anchor="start" x="1656.9052" y="-555.7729" font-family="Times,serif" font-size="10.00" fill="#000000">createdAt: DATE</text>
<polygon fill="none" stroke="#000000" points="1651.9052,-525.7729 1651.9052,-547.7729 1769.9052,-547.7729 1769.9052,-525.7729 1651.9052,-525.7729"/>
<text text-anchor="start" x="1656.9052" y="-533.7729" font-family="Times,serif" font-size="10.00" fill="#000000">updatedAt: DATE</text>
<polygon fill="none" stroke="#000000" points="1651.9052,-503.7729 1651.9052,-525.7729 1769.9052,-525.7729 1769.9052,-503.7729 1651.9052,-503.7729"/>
<text text-anchor="start" x="1656.9052" y="-512.7729" font-family="Times,serif" font-style="italic" text-decoration="underline" font-size="10.00" fill="#000000">profileId</text>
<text text-anchor="start" x="1691.8892" y="-512.7729" font-family="Times,serif" font-size="10.00" fill="#000000">: NUMBER</text>
<polygon fill="none" stroke="#000000" points="1651.9052,-481.7729 1651.9052,-503.7729 1769.9052,-503.7729 1769.9052,-481.7729 1651.9052,-481.7729"/>
<text text-anchor="start" x="1656.9052" y="-490.7729" font-family="Times,serif" font-style="italic" text-decoration="underline" font-size="10.00" fill="#000000">trackId</text>
<text text-anchor="start" x="1685.2202" y="-490.7729" font-family="Times,serif" font-size="10.00" fill="#000000">: NUMBER</text>
</g>
<!-- Profile -->
<g id="node6" class="node">
<title>Profile</title>
<polygon fill="#add8e6" stroke="transparent" points="1529.8581,-352.0202 1529.8581,-374.0202 1628.8581,-374.0202 1628.8581,-352.0202 1529.8581,-352.0202"/>
<polygon fill="none" stroke="#000000" points="1529.8581,-352.0202 1529.8581,-374.0202 1628.8581,-374.0202 1628.8581,-352.0202 1529.8581,-352.0202"/>
<text text-anchor="start" x="1565.7511" y="-361.0202" font-family="Times,serif" font-weight="bold" font-size="10.00" fill="#000000">Profile</text>
<polygon fill="none" stroke="#000000" points="1529.8581,-330.0202 1529.8581,-352.0202 1628.8581,-352.0202 1628.8581,-330.0202 1529.8581,-330.0202"/>
<text text-anchor="start" x="1534.8581" y="-339.0202" font-family="Times,serif" text-decoration="underline" font-size="10.00" fill="#000000">id</text>
<text text-anchor="start" x="1542.6371" y="-339.0202" font-family="Times,serif" font-size="10.00" fill="#000000">: NUMBER</text>
<polygon fill="none" stroke="#000000" points="1529.8581,-308.0202 1529.8581,-330.0202 1628.8581,-330.0202 1628.8581,-308.0202 1529.8581,-308.0202"/>
<text text-anchor="start" x="1534.8581" y="-316.0202" font-family="Times,serif" font-size="10.00" fill="#000000">image: STRING</text>
<polygon fill="none" stroke="#000000" points="1529.8581,-286.0202 1529.8581,-308.0202 1628.8581,-308.0202 1628.8581,-286.0202 1529.8581,-286.0202"/>
<text text-anchor="start" x="1534.8581" y="-294.0202" font-family="Times,serif" font-size="10.00" fill="#000000">name: STRING</text>
<polygon fill="none" stroke="#000000" points="1529.8581,-264.0202 1529.8581,-286.0202 1628.8581,-286.0202 1628.8581,-264.0202 1529.8581,-264.0202"/>
<text text-anchor="start" x="1534.8581" y="-272.0202" font-family="Times,serif" font-size="10.00" fill="#000000">bio: STRING</text>
<polygon fill="none" stroke="#000000" points="1529.8581,-242.0202 1529.8581,-264.0202 1628.8581,-264.0202 1628.8581,-242.0202 1529.8581,-242.0202"/>
<text text-anchor="start" x="1534.8581" y="-250.0202" font-family="Times,serif" font-size="10.00" fill="#000000">gender: STRING</text>
<polygon fill="none" stroke="#000000" points="1529.8581,-220.0202 1529.8581,-242.0202 1628.8581,-242.0202 1628.8581,-220.0202 1529.8581,-220.0202"/>
<text text-anchor="start" x="1534.8581" y="-228.0202" font-family="Times,serif" font-size="10.00" fill="#000000">discordId: STRING</text>
<polygon fill="none" stroke="#000000" points="1529.8581,-198.0202 1529.8581,-220.0202 1628.8581,-220.0202 1628.8581,-198.0202 1529.8581,-198.0202"/>
<text text-anchor="start" x="1534.8581" y="-206.0202" font-family="Times,serif" font-size="10.00" fill="#000000">barmejId: STRING</text>
<polygon fill="none" stroke="#000000" points="1529.8581,-176.0202 1529.8581,-198.0202 1628.8581,-198.0202 1628.8581,-176.0202 1529.8581,-176.0202"/>
<text text-anchor="start" x="1534.8581" y="-184.0202" font-family="Times,serif" font-size="10.00" fill="#000000">phone: STRING</text>
<polygon fill="none" stroke="#000000" points="1529.8581,-154.0202 1529.8581,-176.0202 1628.8581,-176.0202 1628.8581,-154.0202 1529.8581,-154.0202"/>
<text text-anchor="start" x="1534.8581" y="-162.0202" font-family="Times,serif" font-size="10.00" fill="#000000">altEmail: STRING</text>
<polygon fill="none" stroke="#000000" points="1529.8581,-132.0202 1529.8581,-154.0202 1628.8581,-154.0202 1628.8581,-132.0202 1529.8581,-132.0202"/>
<text text-anchor="start" x="1534.8581" y="-140.0202" font-family="Times,serif" font-size="10.00" fill="#000000">enrolled: BOOLEAN</text>
<polygon fill="none" stroke="#000000" points="1529.8581,-110.0202 1529.8581,-132.0202 1628.8581,-132.0202 1628.8581,-110.0202 1529.8581,-110.0202"/>
<text text-anchor="start" x="1534.8581" y="-118.0202" font-family="Times,serif" font-size="10.00" fill="#000000">civilId: STRING</text>
<polygon fill="none" stroke="#000000" points="1529.8581,-88.0202 1529.8581,-110.0202 1628.8581,-110.0202 1628.8581,-88.0202 1529.8581,-88.0202"/>
<text text-anchor="start" x="1534.7851" y="-96.0202" font-family="Times,serif" font-size="10.00" fill="#000000">isMentor: BOOLEAN</text>
<polygon fill="none" stroke="#000000" points="1529.8581,-66.0202 1529.8581,-88.0202 1628.8581,-88.0202 1628.8581,-66.0202 1529.8581,-66.0202"/>
<text text-anchor="start" x="1534.8581" y="-74.0202" font-family="Times,serif" font-size="10.00" fill="#000000">createdAt: DATE</text>
<polygon fill="none" stroke="#000000" points="1529.8581,-44.0202 1529.8581,-66.0202 1628.8581,-66.0202 1628.8581,-44.0202 1529.8581,-44.0202"/>
<text text-anchor="start" x="1534.8581" y="-52.0202" font-family="Times,serif" font-size="10.00" fill="#000000">updatedAt: DATE</text>
<polygon fill="none" stroke="#000000" points="1529.8581,-22.0202 1529.8581,-44.0202 1628.8581,-44.0202 1628.8581,-22.0202 1529.8581,-22.0202"/>
<text text-anchor="start" x="1534.8581" y="-31.0202" font-family="Times,serif" font-style="italic" text-decoration="underline" font-size="10.00" fill="#000000">userId</text>
<text text-anchor="start" x="1559.8441" y="-31.0202" font-family="Times,serif" font-size="10.00" fill="#000000">: NUMBER</text>
</g>
<!-- Mentor&#45;&gt;Profile -->
<g id="edge5" class="edge">
<title>Mentor&#45;&gt;Profile</title>
<path fill="none" stroke="#000000" stroke-width=".75" d="M1676.7281,-481.7068C1662.018,-439.068 1644.5345,-388.3901 1628.4424,-341.7455"/>
</g>
<!-- Mentor&#45;&gt;Track -->
<g id="edge6" class="edge">
<title>Mentor&#45;&gt;Track</title>
<path fill="none" stroke="#000000" stroke-width=".75" d="M1645.457,-568.0914C1489.6201,-537.896 1099.4637,-462.2982 963.5204,-435.9574"/>
<polygon fill="#000000" stroke="#000000" stroke-width=".75" points="1645.9105,-568.1792 1651.2873,-571.9713 1648.8557,-568.7499 1651.801,-569.3206 1651.801,-569.3206 1651.801,-569.3206 1648.8557,-568.7499 1652.3146,-566.6699 1645.9105,-568.1792 1645.9105,-568.1792"/>
</g>
<!-- User -->
<g id="node11" class="node">
<title>User</title>
<polygon fill="#add8e6" stroke="transparent" points="1625.3323,-137.8164 1625.3323,-159.8164 1714.3323,-159.8164 1714.3323,-137.8164 1625.3323,-137.8164"/>
<polygon fill="none" stroke="#000000" points="1625.3323,-137.8164 1625.3323,-159.8164 1714.3323,-159.8164 1714.3323,-137.8164 1625.3323,-137.8164"/>
<text text-anchor="start" x="1660.3943" y="-146.8164" font-family="Times,serif" font-weight="bold" font-size="10.00" fill="#000000">User</text>
<polygon fill="none" stroke="#000000" points="1625.3323,-115.8164 1625.3323,-137.8164 1714.3323,-137.8164 1714.3323,-115.8164 1625.3323,-115.8164"/>
<text text-anchor="start" x="1630.3323" y="-124.8164" font-family="Times,serif" text-decoration="underline" font-size="10.00" fill="#000000">id</text>
<text text-anchor="start" x="1638.1113" y="-124.8164" font-family="Times,serif" font-size="10.00" fill="#000000">: NUMBER</text>
<polygon fill="none" stroke="#000000" points="1625.3323,-93.8164 1625.3323,-115.8164 1714.3323,-115.8164 1714.3323,-93.8164 1625.3323,-93.8164"/>
<text text-anchor="start" x="1630.3323" y="-101.8164" font-family="Times,serif" font-size="10.00" fill="#000000">email: STRING</text>
<polygon fill="none" stroke="#000000" points="1625.3323,-71.8164 1625.3323,-93.8164 1714.3323,-93.8164 1714.3323,-71.8164 1625.3323,-71.8164"/>
<text text-anchor="start" x="1630.2583" y="-79.8164" font-family="Times,serif" font-size="10.00" fill="#000000">password: STRING</text>
<polygon fill="none" stroke="#000000" points="1625.3323,-49.8164 1625.3323,-71.8164 1714.3323,-71.8164 1714.3323,-49.8164 1625.3323,-49.8164"/>
<text text-anchor="start" x="1630.3323" y="-57.8164" font-family="Times,serif" font-size="10.00" fill="#000000">createdAt: DATE</text>
<polygon fill="none" stroke="#000000" points="1625.3323,-27.8164 1625.3323,-49.8164 1714.3323,-49.8164 1714.3323,-27.8164 1625.3323,-27.8164"/>
<text text-anchor="start" x="1630.3323" y="-35.8164" font-family="Times,serif" font-size="10.00" fill="#000000">updatedAt: DATE</text>
</g>
<!-- Profile&#45;&gt;User -->
<g id="edge7" class="edge">
<title>Profile&#45;&gt;User</title>
<path fill="none" stroke="#000000" stroke-width=".75" d="M1628.5946,-140.7361C1628.6767,-140.6415 1628.7588,-140.5469 1628.8409,-140.4524"/>
</g>
<!-- Student -->
<g id="node7" class="node">
<title>Student</title>
<polygon fill="#add8e6" stroke="transparent" points="1131.361,-220 1131.361,-242 1232.361,-242 1232.361,-220 1131.361,-220"/>
<polygon fill="none" stroke="#000000" points="1131.361,-220 1131.361,-242 1232.361,-242 1232.361,-220 1131.361,-220"/>
<text text-anchor="start" x="1166.583" y="-229" font-family="Times,serif" font-weight="bold" font-size="10.00" fill="#000000">Student</text>
<polygon fill="none" stroke="#000000" points="1131.361,-198 1131.361,-220 1232.361,-220 1232.361,-198 1131.361,-198"/>
<text text-anchor="start" x="1136.361" y="-207" font-family="Times,serif" text-decoration="underline" font-size="10.00" fill="#000000">id</text>
<text text-anchor="start" x="1144.14" y="-207" font-family="Times,serif" font-size="10.00" fill="#000000">: NUMBER</text>
<polygon fill="none" stroke="#000000" points="1131.361,-176 1131.361,-198 1232.361,-198 1232.361,-176 1131.361,-176"/>
<text text-anchor="start" x="1136.361" y="-184" font-family="Times,serif" font-size="10.00" fill="#000000">grade: STRING</text>
<polygon fill="none" stroke="#000000" points="1131.361,-154 1131.361,-176 1232.361,-176 1232.361,-154 1131.361,-154"/>
<text text-anchor="start" x="1136.178" y="-162" font-family="Times,serif" font-size="10.00" fill="#000000">schoolName: STRING</text>
<polygon fill="none" stroke="#000000" points="1131.361,-132 1131.361,-154 1232.361,-154 1232.361,-132 1131.361,-132"/>
<text text-anchor="start" x="1136.361" y="-140" font-family="Times,serif" font-size="10.00" fill="#000000">schoolType: STRING</text>
<polygon fill="none" stroke="#000000" points="1131.361,-110 1131.361,-132 1232.361,-132 1232.361,-110 1131.361,-110"/>
<text text-anchor="start" x="1136.361" y="-118" font-family="Times,serif" font-size="10.00" fill="#000000">device: STRING</text>
<polygon fill="none" stroke="#000000" points="1131.361,-88 1131.361,-110 1232.361,-110 1232.361,-88 1131.361,-88"/>
<text text-anchor="start" x="1136.361" y="-96" font-family="Times,serif" font-size="10.00" fill="#000000">createdAt: DATE</text>
<polygon fill="none" stroke="#000000" points="1131.361,-66 1131.361,-88 1232.361,-88 1232.361,-66 1131.361,-66"/>
<text text-anchor="start" x="1136.361" y="-74" font-family="Times,serif" font-size="10.00" fill="#000000">updatedAt: DATE</text>
<polygon fill="none" stroke="#000000" points="1131.361,-44 1131.361,-66 1232.361,-66 1232.361,-44 1131.361,-44"/>
<text text-anchor="start" x="1136.361" y="-53" font-family="Times,serif" font-style="italic" text-decoration="underline" font-size="10.00" fill="#000000">profileId</text>
<text text-anchor="start" x="1171.345" y="-53" font-family="Times,serif" font-size="10.00" fill="#000000">: NUMBER</text>
<polygon fill="none" stroke="#000000" points="1131.361,-22 1131.361,-44 1232.361,-44 1232.361,-22 1131.361,-22"/>
<text text-anchor="start" x="1136.361" y="-31" font-family="Times,serif" font-style="italic" text-decoration="underline" font-size="10.00" fill="#000000">trackId</text>
<text text-anchor="start" x="1164.676" y="-31" font-family="Times,serif" font-size="10.00" fill="#000000">: NUMBER</text>
<polygon fill="none" stroke="#000000" points="1131.361,0 1131.361,-22 1232.361,-22 1232.361,0 1131.361,0"/>
<text text-anchor="start" x="1136.361" y="-9" font-family="Times,serif" font-style="italic" text-decoration="underline" font-size="10.00" fill="#000000">mentorId</text>
<text text-anchor="start" x="1173.016" y="-9" font-family="Times,serif" font-size="10.00" fill="#000000">: NUMBER</text>
</g>
<!-- Student&#45;&gt;Mentor -->
<g id="edge10" class="edge">
<title>Student&#45;&gt;Mentor</title>
<path fill="none" stroke="#000000" stroke-width=".75" d="M1236.8387,-169.1681C1337.3743,-256.4574 1548.7895,-440.017 1651.8748,-529.5201"/>
<polygon fill="#000000" stroke="#000000" stroke-width=".75" points="1236.6666,-169.0186 1233.9061,-163.0462 1234.4013,-167.0518 1232.136,-165.085 1232.136,-165.085 1232.136,-165.085 1234.4013,-167.0518 1230.3658,-167.1237 1236.6666,-169.0186 1236.6666,-169.0186"/>
</g>
<!-- Student&#45;&gt;Profile -->
<g id="edge8" class="edge">
<title>Student&#45;&gt;Profile</title>
<path fill="none" stroke="#000000" stroke-width=".75" d="M1232.1081,-130.8329C1308.8156,-145.696 1453.3798,-173.7071 1529.3495,-188.4272"/>
</g>
<!-- Submission -->
<g id="node8" class="node">
<title>Submission</title>
<polygon fill="#add8e6" stroke="transparent" points="1000.9582,-875.4852 1000.9582,-897.4852 1095.9582,-897.4852 1095.9582,-875.4852 1000.9582,-875.4852"/>
<polygon fill="none" stroke="#000000" points="1000.9582,-875.4852 1000.9582,-897.4852 1095.9582,-897.4852 1095.9582,-875.4852 1000.9582,-875.4852"/>
<text text-anchor="start" x="1025.1212" y="-884.4852" font-family="Times,serif" font-weight="bold" font-size="10.00" fill="#000000">Submission</text>
<polygon fill="none" stroke="#000000" points="1000.9582,-853.4852 1000.9582,-875.4852 1095.9582,-875.4852 1095.9582,-853.4852 1000.9582,-853.4852"/>
<text text-anchor="start" x="1005.9582" y="-861.4852" font-family="Times,serif" font-size="10.00" fill="#000000">status: STRING</text>
<polygon fill="none" stroke="#000000" points="1000.9582,-831.4852 1000.9582,-853.4852 1095.9582,-853.4852 1095.9582,-831.4852 1000.9582,-831.4852"/>
<text text-anchor="start" x="1005.9582" y="-839.4852" font-family="Times,serif" font-size="10.00" fill="#000000">score: STRING</text>
<polygon fill="none" stroke="#000000" points="1000.9582,-809.4852 1000.9582,-831.4852 1095.9582,-831.4852 1095.9582,-809.4852 1000.9582,-809.4852"/>
<text text-anchor="start" x="1005.9582" y="-817.4852" font-family="Times,serif" font-size="10.00" fill="#000000">comment: STRING</text>
<polygon fill="none" stroke="#000000" points="1000.9582,-787.4852 1000.9582,-809.4852 1095.9582,-809.4852 1095.9582,-787.4852 1000.9582,-787.4852"/>
<text text-anchor="start" x="1005.9582" y="-795.4852" font-family="Times,serif" font-size="10.00" fill="#000000">createdAt: DATE</text>
<polygon fill="none" stroke="#000000" points="1000.9582,-765.4852 1000.9582,-787.4852 1095.9582,-787.4852 1095.9582,-765.4852 1000.9582,-765.4852"/>
<text text-anchor="start" x="1005.9582" y="-773.4852" font-family="Times,serif" font-size="10.00" fill="#000000">updatedAt: DATE</text>
<polygon fill="none" stroke="#000000" points="1000.9582,-743.4852 1000.9582,-765.4852 1095.9582,-765.4852 1095.9582,-743.4852 1000.9582,-743.4852"/>
<text text-anchor="start" x="1005.8242" y="-752.4852" font-family="Times,serif" text-decoration="underline" font-size="10.00" fill="#000000">studentId</text>
<text text-anchor="start" x="1043.0392" y="-752.4852" font-family="Times,serif" font-size="10.00" fill="#000000">: NUMBER</text>
<polygon fill="none" stroke="#000000" points="1000.9582,-721.4852 1000.9582,-743.4852 1095.9582,-743.4852 1095.9582,-721.4852 1000.9582,-721.4852"/>
<text text-anchor="start" x="1005.9582" y="-730.4852" font-family="Times,serif" text-decoration="underline" font-size="10.00" fill="#000000">taskId</text>
<text text-anchor="start" x="1030.3942" y="-730.4852" font-family="Times,serif" font-size="10.00" fill="#000000">: NUMBER</text>
</g>
<!-- Student&#45;&gt;Submission -->
<g id="edge1" class="edge">
<title>Student&#45;&gt;Submission</title>
<path fill="none" stroke="#000000" stroke-width=".75" d="M1157.8949,-242.1074C1131.7581,-376.9983 1090.0586,-592.2072 1066.2348,-715.1605"/>
<polygon fill="#000000" stroke="#000000" stroke-width=".75" points="1066.1851,-715.4173 1062.393,-720.7941 1065.6144,-718.3626 1065.0437,-721.3078 1065.0437,-721.3078 1065.0437,-721.3078 1065.6144,-718.3626 1067.6944,-721.8214 1066.1851,-715.4173 1066.1851,-715.4173"/>
</g>
<!-- Student&#45;&gt;Track -->
<g id="edge9" class="edge">
<title>Student&#45;&gt;Track</title>
<path fill="none" stroke="#000000" stroke-width=".75" d="M1126.8061,-183.8337C1078.7569,-239.1745 1009.4716,-318.974 963.5981,-371.8089"/>
<polygon fill="#000000" stroke="#000000" stroke-width=".75" points="1126.8734,-183.7562 1132.8459,-180.9957 1128.8403,-181.4909 1130.8071,-179.2256 1130.8071,-179.2256 1130.8071,-179.2256 1128.8403,-181.4909 1128.7683,-177.4554 1126.8734,-183.7562 1126.8734,-183.7562"/>
</g>
<!-- Task -->
<g id="node9" class="node">
<title>Task</title>
<polygon fill="#add8e6" stroke="transparent" points="1394.4553,-941.5054 1394.4553,-963.5054 1497.4553,-963.5054 1497.4553,-941.5054 1394.4553,-941.5054"/>
<polygon fill="none" stroke="#000000" points="1394.4553,-941.5054 1394.4553,-963.5054 1497.4553,-963.5054 1497.4553,-941.5054 1394.4553,-941.5054"/>
<text text-anchor="start" x="1436.2368" y="-950.5054" font-family="Times,serif" font-weight="bold" font-size="10.00" fill="#000000">Task</text>
<polygon fill="none" stroke="#000000" points="1394.4553,-919.5054 1394.4553,-941.5054 1497.4553,-941.5054 1497.4553,-919.5054 1394.4553,-919.5054"/>
<text text-anchor="start" x="1399.4553" y="-928.5054" font-family="Times,serif" text-decoration="underline" font-size="10.00" fill="#000000">id</text>
<text text-anchor="start" x="1407.2343" y="-928.5054" font-family="Times,serif" font-size="10.00" fill="#000000">: NUMBER</text>
<polygon fill="none" stroke="#000000" points="1394.4553,-897.5054 1394.4553,-919.5054 1497.4553,-919.5054 1497.4553,-897.5054 1394.4553,-897.5054"/>
<text text-anchor="start" x="1399.4553" y="-905.5054" font-family="Times,serif" font-size="10.00" fill="#000000">title: STRING</text>
<polygon fill="none" stroke="#000000" points="1394.4553,-875.5054 1394.4553,-897.5054 1497.4553,-897.5054 1497.4553,-875.5054 1394.4553,-875.5054"/>
<text text-anchor="start" x="1399.4473" y="-883.5054" font-family="Times,serif" font-size="10.00" fill="#000000">dueDate: DATEONLY</text>
<polygon fill="none" stroke="#000000" points="1394.4553,-853.5054 1394.4553,-875.5054 1497.4553,-875.5054 1497.4553,-853.5054 1394.4553,-853.5054"/>
<text text-anchor="start" x="1399.4553" y="-861.5054" font-family="Times,serif" font-size="10.00" fill="#000000">createdAt: DATE</text>
<polygon fill="none" stroke="#000000" points="1394.4553,-831.5054 1394.4553,-853.5054 1497.4553,-853.5054 1497.4553,-831.5054 1394.4553,-831.5054"/>
<text text-anchor="start" x="1399.4553" y="-839.5054" font-family="Times,serif" font-size="10.00" fill="#000000">updatedAt: DATE</text>
<polygon fill="none" stroke="#000000" points="1394.4553,-809.5054 1394.4553,-831.5054 1497.4553,-831.5054 1497.4553,-809.5054 1394.4553,-809.5054"/>
<text text-anchor="start" x="1399.4553" y="-818.5054" font-family="Times,serif" font-style="italic" text-decoration="underline" font-size="10.00" fill="#000000">trackId</text>
<text text-anchor="start" x="1427.7703" y="-818.5054" font-family="Times,serif" font-size="10.00" fill="#000000">: NUMBER</text>
</g>
<!-- Task&#45;&gt;Submission -->
<g id="edge2" class="edge">
<title>Task&#45;&gt;Submission</title>
<path fill="none" stroke="#000000" stroke-width=".75" d="M1393.897,-876.5153C1318.5027,-861.9067 1178.8177,-834.8409 1102.0256,-819.9614"/>
<polygon fill="#000000" stroke="#000000" stroke-width=".75" points="1101.5915,-819.8774 1096.2147,-816.0853 1098.6463,-819.3067 1095.7011,-818.736 1095.7011,-818.736 1095.7011,-818.736 1098.6463,-819.3067 1095.1874,-821.3867 1101.5915,-819.8774 1101.5915,-819.8774"/>
</g>
<!-- Task&#45;&gt;Track -->
<g id="edge11" class="edge">
<title>Task&#45;&gt;Track</title>
<path fill="none" stroke="#000000" stroke-width=".75" d="M1389.1244,-837.5965C1284.3927,-746.664 1061.4742,-553.1167 963.6327,-468.1664"/>
<polygon fill="#000000" stroke="#000000" stroke-width=".75" points="1389.1855,-837.6496 1391.946,-843.622 1391.4509,-839.6164 1393.7162,-841.5833 1393.7162,-841.5833 1393.7162,-841.5833 1391.4509,-839.6164 1395.4863,-839.5445 1389.1855,-837.6496 1389.1855,-837.6496"/>
</g>
</g>
</svg>
